<svg width="30" height="30" viewBox="0 0 30 30" fill="none" xmlns="http://www.w3.org/2000/svg">
<circle cx="15" cy="15" r="15" fill="black"/>
<g clip-path="url(#clip0)">
<path d="M10.857 21.4577C10.8933 22.1881 11.4917 22.7586 12.2244 22.7586H17.7756C18.5082 22.7586 19.1068 22.1882 19.143 21.4577L19.9426 12.2617H10.0574L10.857 21.4577ZM16.3692 14.5436H17.282V19.5639H16.3692V14.5436ZM14.5436 14.5436H15.4564V19.5639H14.5436V14.5436ZM12.7181 14.5436H13.6308V19.5639H12.7181V14.5436Z" fill="#FFFF00"/>
<path d="M17.282 9.52334V8.61056C17.282 7.85563 16.6678 7.24139 15.9128 7.24139H14.0872C13.3323 7.24139 12.7181 7.85563 12.7181 8.61056V9.52334H9.06696V11.3489H20.9331V9.52334H17.282ZM13.6309 9.52334V8.61056C13.6309 8.35891 13.8356 8.15417 14.0872 8.15417H15.9128C16.1645 8.15417 16.3692 8.35891 16.3692 8.61056V9.52334H13.6309Z" fill="#FFFF00"/>
</g>
<defs>
<clipPath id="clip0">
<rect width="15.5172" height="15.5172" fill="white" transform="translate(7.24139 7.24139)"/>
</clipPath>
</defs>
</svg>
