<svg width="512" height="512" viewBox="0 0 512 512" fill="none" xmlns="http://www.w3.org/2000/svg">
<path d="M483.708 0.00830078H28.258C12.6622 0.00830078 0 12.6454 0 28.2668V483.725C0 499.346 12.6622 512 28.258 512H273.459V313.727H206.742V236.446H273.459V179.457C273.459 113.337 313.831 77.3145 372.826 77.3145C401.109 77.3145 425.363 79.4306 432.436 80.3495V149.461L391.516 149.478C359.439 149.478 353.251 164.729 353.251 187.094V236.42H429.78L419.774 313.693H353.242V511.975H483.7C499.313 511.975 511.983 499.304 511.983 483.725V28.2499C511.975 12.6454 499.321 0.00830078 483.708 0.00830078Z" fill="#FD7530"/>
</svg>
